name rise30.9205peak61.366fall85.3838.mot
datacolumns 19
datarows 17
range 10.71663900000000 10.74329800000000
endheader
time	ground_force1_vx	ground_force1_vy	ground_force1_vz	ground_force1_px	ground_force1_py	ground_force1_pz	ground_force2_vx	ground_force2_vy	ground_force2_vz	ground_force2_px	ground_force2_py	ground_force2_pz	ground_torque1_x	ground_torque1_y	ground_torque1_z	ground_torque2_x	ground_torque2_y	ground_torque2_z	
10.71663900000000	-57.10563100000000	837.66602399999999	59.43486200000000	0.11639400000000	0.00000000000000	0.13665800000000	0.00000000000000	0.00000000000000	0.00000000000000	0.00000000000000	0.00000000000000	0.00000000000000	0.00000000000000	27.92426000000000	0.00000000000000	0.00000000000000	0.00000000000000	0.00000000000000	
10.71829300000000	-57.33316500000000	835.79798500000004	59.39791600000000	0.11575800000000	0.00000000000000	0.13657300000000	0.00000000000000	0.00000000000000	0.00000000000000	0.00000000000000	0.00000000000000	0.00000000000000	0.00000000000000	27.85641500000000	0.00000000000000	0.00000000000000	0.00000000000000	0.00000000000000	
10.71996400000000	-57.56775900000000	833.78496900000005	59.34092600000000	0.11513100000000	0.00000000000000	0.13648500000000	-1.46640000000000	3.78412200000000	1.10871300000000	0.00000000000000	0.00000000000000	0.00000000000000	0.00000000000000	27.78731900000000	0.00000000000000	0.00000000000000	0.43598000000000	0.00000000000000	
10.72162600000000	-57.81000600000000	831.62707100000000	59.26339700000000	0.11451200000000	0.00000000000000	0.13639400000000	-2.39692800000000	7.24696000000000	1.89746500000000	0.00000000000000	0.00000000000000	0.00000000000000	0.00000000000000	27.71713200000000	0.00000000000000	0.00000000000000	0.74839100000000	0.00000000000000	
10.72329100000000	-58.06046400000000	829.32445299999995	59.16485600000000	0.11390300000000	0.00000000000000	0.13630000000000	-3.45962800000000	11.42463300000000	2.81567200000000	0.00000000000000	0.00000000000000	0.00000000000000	0.00000000000000	27.64600500000000	0.00000000000000	0.00000000000000	1.11260300000000	0.00000000000000	
10.72496800000000	-58.31965300000000	826.87734200000000	59.04485400000000	0.11330300000000	0.00000000000000	0.13620200000000	-4.62517000000000	16.27099100000000	3.84324900000000	0.00000000000000	0.00000000000000	0.00000000000000	0.00000000000000	27.57408100000000	0.00000000000000	0.00000000000000	1.52083900000000	0.00000000000000	
10.72664200000000	-58.58804800000000	824.28601800000001	58.90297100000000	0.11271100000000	0.00000000000000	0.13610100000000	-5.85604100000000	21.70813700000000	4.95300500000000	0.00000000000000	0.00000000000000	0.00000000000000	0.00000000000000	27.50149100000000	0.00000000000000	0.00000000000000	1.96251800000000	0.00000000000000	
10.72829600000000	-58.86607700000000	821.55080599999997	58.73881200000000	0.11212800000000	0.00000000000000	0.13599600000000	-7.10898800000000	27.63226800000000	6.11244900000000	0.36336400000000	0.00000000000000	-0.02535100000000	0.00000000000000	27.42835400000000	0.00000000000000	0.00000000000000	4.46579200000000	0.00000000000000	
10.72996300000000	-59.15411700000000	818.67207299999995	58.55201200000000	0.11155300000000	0.00000000000000	0.13588800000000	-8.33815700000000	33.92233100000000	7.28620400000000	0.36901200000000	0.00000000000000	-0.02602200000000	0.00000000000000	27.35477800000000	0.00000000000000	0.00000000000000	5.36607100000000	0.00000000000000	
10.73164000000000	-59.45249000000000	815.65021899999999	58.34223500000000	0.11098600000000	0.00000000000000	0.13577600000000	-9.49853200000000	40.45038400000000	8.43873100000000	0.37410800000000	0.00000000000000	-0.02663800000000	0.00000000000000	27.28085700000000	0.00000000000000	0.00000000000000	6.26076700000000	0.00000000000000	
10.73331000000000	-59.76145700000000	812.48567000000003	58.10917300000000	0.11042700000000	0.00000000000000	0.13566000000000	-10.54919500000000	47.09213800000000	9.53697400000000	0.37872600000000	0.00000000000000	-0.02720700000000	0.00000000000000	27.20667200000000	0.00000000000000	0.00000000000000	7.12425100000000	0.00000000000000	
10.73496100000000	-60.08121900000000	809.17887199999996	57.85255400000000	0.10987500000000	0.00000000000000	0.13554100000000	-11.45600900000000	53.73632800000000	10.55258500000000	0.38292700000000	0.00000000000000	-0.02773700000000	0.00000000000000	27.13228900000000	0.00000000000000	0.00000000000000	7.93410100000000	0.00000000000000	
10.73663900000000	-60.41190800000000	805.73028799999997	57.57213500000000	0.10933100000000	0.00000000000000	0.13541800000000	-12.19343800000000	60.29189200000000	11.46351500000000	0.38676100000000	0.00000000000000	-0.02823400000000	0.00000000000000	27.05775900000000	0.00000000000000	0.00000000000000	8.67243600000000	0.00000000000000	
10.73829500000000	-60.75358900000000	802.14038700000003	57.26770900000000	0.10879300000000	0.00000000000000	0.13529200000000	-12.74542500000000	66.69247500000000	12.25486700000000	0.39027000000000	0.00000000000000	-0.02870300000000	0.00000000000000	26.98311800000000	0.00000000000000	0.00000000000000	9.32668600000000	0.00000000000000	
10.73995800000000	-61.10625300000000	798.40964699999995	56.93910200000000	0.10826100000000	0.00000000000000	0.13516100000000	-13.10536000000000	72.89820700000000	12.91903700000000	0.39349100000000	0.00000000000000	-0.02914700000000	0.00000000000000	26.90838500000000	0.00000000000000	0.00000000000000	9.88981200000000	0.00000000000000	
10.74162700000000	-61.46981300000000	794.53854400000000	56.58617500000000	0.10773600000000	0.00000000000000	0.13502700000000	-13.27529000000000	78.89500300000000	13.45522800000000	0.39645100000000	0.00000000000000	-0.02957100000000	0.00000000000000	26.83356300000000	0.00000000000000	0.00000000000000	10.36003100000000	0.00000000000000	
10.74329800000000	-61.84410600000000	790.52755200000001	56.20882600000000	0.10721600000000	0.00000000000000	0.13488800000000	-13.26454100000000	84.69186600000000	13.86849800000000	0.39917900000000	0.00000000000000	-0.02997700000000	0.00000000000000	26.75863800000000	0.00000000000000	0.00000000000000	10.74015900000000	0.00000000000000	
